<svg id="Layer_1" xmlns="http://www.w3.org/2000/svg" version="1.1" xmlns:i="http://ns.adobe.com/AdobeIllustrator/10.0/" viewBox="0 0 801.4 774.9">
  <defs>
    <style>
      .st0 {
        fill: #f7de27;
      }

      .st1 {
        fill: #ef6b30;
      }

      .st2 {
        fill: #fbbe33;
      }

      .st3 {
        fill: #0d4264;
      }

      .st4 {
        fill: #23a5a1;
      }

      .st5 {
        fill: #88d8d4;
      }

      .st6 {
        fill: none;
        stroke: #08485e;
        stroke-linecap: round;
        stroke-linejoin: round;
        stroke-width: 10px;
      }
    </style>
  </defs>
  <g>
    <path class="st5" d="M630.2,361.9c-3.3-1.1-3.5-9.4-13.1-7.5-21.6,4.2-32.1,27.5-33.4,30.4-13.7,31.6,7,66.7,15.6,81.4,11,18.7,5.1,34.9,15.3,43.8,18.2,16,29.9,43.4,45.1,35.6,23.8-12,17.7-102.1,16.1-107.5-5.6-18.9-11.7-64.4-45.8-76.3Z"></path>
    <path class="st3" d="M669.6,556.8c-5.1,3.2-41.6,12.6-47.6,12.6-9.8,0-17.7-4.9-25-10.9-12.6,3.7-25.4,7.4-38.2,10.4-3.3.8-7.7-.8-9.2,2.4-31.1,3.7-72.4,21.5-105.2,24.4-6.9.6-11.6,0-18.1-2.4-4.5-1.6-18.4-11-19.9-11.2-2.9-.4-23.9,7.3-28.7,8.5s-9.2,2.5-10.5,2.7c-24,3.9-56,18.4-79.8,20.7-12.2,1.2-19.2-4-28.1-11.3-22.5,5.8-44.8,12.8-67.2,18.8-4.6,1.2-8.9.7-13.9,2.6s-8.7,7.8-13.5,11.6c-4.6,3.6-13.6,5.3-19.4,7s-4.2,2.9-9.5,2.7c-37.8-1.4-56.3-76.8-23.1-94.1s18.7-7.2,23.7-7.3c8.4,0,13.9,5.9,20.6,5,4.7-.6,8.9-3.8,12.3-5,24.8-8.7,50.9-16.1,74.9-26.2,1.1-11.5,9-17.6,17.3-24l116.2-38.3c5.2-11.6,10.4-23.4,22.6-29.1,15.9-7.4,41.7-13.9,59.3-20,23.9-8.2,50.2-16.2,72.8-24.5,2.8-1,11.2-2.7,12.7-3.9s4.9-12.6,10.2-17.3c6.2-5.7,13.9-5.8,21.7-8.6.7-.3,1-1.5,2.3-2,22.8-8.1,41.9-13.4,62.1,4.1,36.1,31.4,57.4,105.3,53.1,152.1s-5.4,38-24.6,50.3ZM617.3,497.7c6.3,12.8,27.2,51.5,44.7,33.1,16-16.9,6.3-69.4.3-90.4s-22.8-63.7-43.4-70c-7.3-2.2-11.1-1-15.5,5.1-18.7,25.8.9,95.6,13.9,122.2ZM571.8,385.9c-13.9,30.4-9.9,65.5,1.1,96.1,6.8,18.8,17.7,39,33.1,52.1l-14.5-25.3c-15.3-36.6-23.4-79.5-19.2-119.3.1-1.2,1.3-3.6-.5-3.6ZM541.7,405.9c-1.4-.5-2.5,0-3.8.3-24.9,5.3-61.7,20.4-87,29-11.5,3.9-30,8.8-40.1,13.7-15.7,7.7-15,43.4-12.6,58.5,1.9,12.1,6.9,23.5,10.2,35.2l146.2-41.6c-6.6-14.3-10.3-30.8-12.4-46.5-2.2-16.1-3.6-32.7-.5-48.8ZM286.8,509.5c-6.2,1.8-8.9,1.5-14,6.1s-7.3,12.8-8.1,21.7c-.1,1.3.7,2.3.7,2.5-.8,14.1-.7,27.2,6,40.2l113.1-32.6c.6-.5-4.5-13.1-5.1-15.2-2-7.2-5.4-19.7-6.2-26.8,0-.9.5-2.1.4-3-.6-6.8,0-13.1-.3-19.7,0-1.3,1-1.7-1.2-1.7l-85.3,28.4ZM246.3,582.5c-5.2-13.3-6-28-5.7-42.2-15,6.6-31.4,10.4-46.8,15.4s-1.6,1.8-2.9,2.2c-12.1,3.9-31.8,8.1-42.3,13.1-5.9,2.8-6.2,7.4-6.5,13.4-.4,8,2.8,24.8,13,24.6,30.7-7.8,60.4-19.1,91.1-26.5ZM123.2,567.3c-3.2,1.6-5,8.5-5.7,11.8-2.5,12.3.9,31.6,11.6,39-2-5-4.5-9.9-5.7-15.2s-2.8-17.6-2.3-21.3l2-14.4Z" style="fill-rule: nonzero; paint-order: stroke; stroke: rgb(0, 0, 0); fill: rgb(234, 236, 239); stroke-width: 5px;"></path>
    <path class="st4" d="M541.7,405.9c-3.1,16-1.6,32.7.5,48.8,2.1,15.6,5.8,32.2,12.4,46.5l-146.2,41.6c-3.4-11.7-8.3-23.1-10.2-35.2-2.4-15.1-3.1-50.8,12.6-58.5,10.1-5,28.6-9.8,40.1-13.7,25.4-8.7,62.2-23.7,87-29,1.3-.3,2.4-.7,3.8-.3Z" style="fill: rgb(31, 61, 118);"></path>
    <path class="st1" d="M373.2,505.4c.8,7.1,4.1,19.6,6.2,26.8.6,2,5.7,14.7,5.1,15.2l-113.1,32.6c-6.6-13-6.8-26.1-6-40.2,3.4-2.5,7.8-3.1,11.7-4.4,31.8-10.5,63.9-20.9,96.1-29.9Z"></path>
    <path class="st4" d="M246.3,582.5c-30.7,7.5-60.5,18.7-91.1,26.5-10.2.1-13.4-16.7-13-24.6.3-6,.5-10.6,6.5-13.4,10.5-5,30.2-9.2,42.3-13.1,1.3-.4,1.6-1.8,2.9-2.2,15.4-5,31.9-8.7,46.8-15.4-.3,14.2.5,28.9,5.7,42.2Z"></path>
    <path class="st2" d="M286.8,509.5c28.1-8.1,56.2-17.3,84.1-26.5,2,0,1.2.3,1.2,1.6,0,4.9-.5,9.6-.3,14.5s-.9,3.6,1.9,3.4c0,.9-.5,2.1-.4,3-32.2,9-64.3,19.4-96.1,29.9l-11.3,1.4c1.4-7.7,1.8-14.9,7-21.2,5.1-4.6,7.8-4.3,14-6.1Z"></path>
    <path class="st0" d="M286.8,509.5l85.3-28.4c2.2,0,1.2.4,1.2,1.7.3,6.6-.3,12.9.3,19.7-2.8.2-1.8-1.6-1.9-3.4-.2-4.9.3-9.6.3-14.5s.8-1.7-1.2-1.6c-27.9,9.2-55.9,18.4-84.1,26.5Z"></path>
    <path class="st0" d="M272.8,515.6c-5.2,6.3-5.7,13.5-7,21.2l11.3-1.4c-3.9,1.3-8.3,1.9-11.7,4.4,0-.2-.8-1.2-.7-2.5.8-8.8,1.4-15.5,8.1-21.7Z"></path>
    <path class="st4" d="M123.2,567.3l-2,14.4c-.5,3.7,1.3,17.1,2.3,21.3s3.7,10.2,5.7,15.2c-10.7-7.4-14.1-26.7-11.6-39,.7-3.4,2.5-10.3,5.7-11.8Z"></path>
    <path class="st4" d="M571.8,385.9c1.7,0,.6,2.4.5,3.6-4.2,39.8,3.9,82.6,19.2,119.3l14.5,25.3c-15.4-13.1-26.3-33.2-33.1-52.1-11-30.6-15-65.7-1.1-96.1Z"></path>
    <path class="st3" d="M612.9,438.1c-.9-5.1-2.2-10.1-2.6-15.3-1.1-12.3-3-47.7,16.6-26.7,16,17.2,29.6,65.2,30.5,88.6.2,6-.2,27-5.2,29.7-2,1.1-3.1.2-4.6.3-.7-15.2.3-31.9-7.7-45.5-3.7-9.6-13.5-23.4-22.2-28.9-1.5-1-2.8-2.1-4.8-2.2Z"></path>
    <path class="st2" d="M612.9,438.1c2,0,3.2,1.2,4.8,2.2,8.7,5.5,18.5,19.3,22.2,28.9,5.8,15.2,6.4,29.1,5.8,45.2-6.2-1.3-16.2-21.1-18.8-27-6.9-15.5-10.9-32.6-13.9-49.3Z"></path>
    <path class="st0" d="M647.6,514.7c-.3,0-1,0-2-.3.6-16.1,0-30.1-5.8-45.2,8.1,13.6,7,30.3,7.7,45.5Z"></path>
  </g>
  <g>
    <line class="st6" x1="637" y1="89.4" x2="637" y2="260.1"></line>
    <line class="st6" x1="516" y1="132.3" x2="516" y2="332.8"></line>
    <line class="st6" x1="395" y1="260.6" x2="395" y2="374"></line>
    <line class="st6" x1="274.1" y1="308.9" x2="274.1" y2="462.9"></line>
    <rect class="st4" x="607.9" y="106" width="58.1" height="137.5" style="fill: rgb(31, 61, 118); stroke: rgb(0, 0, 0);"></rect>
    <rect class="st2" x="486.9" y="150" width="58.1" height="165" style="stroke: rgb(0, 0, 0); fill: rgb(245, 245, 245);"></rect>
    <rect class="st1" x="366" y="276.6" width="58.1" height="81.3" style="stroke: rgb(0, 0, 0);"></rect>
    <line class="st6" x1="153.2" y1="391.8" x2="153.2" y2="505.2"></line>
    <rect class="st4" x="245" y="326.1" width="58.1" height="119.6" style="stroke: rgb(0, 0, 0); fill: rgb(245, 245, 245);"></rect>
    <rect class="st1" x="124.1" y="406.4" width="58.1" height="84.2" style="fill: rgb(31, 61, 118); stroke: rgb(0, 0, 0);"></rect>
  </g>
</svg>
